<svg xmlns="http://www.w3.org/2000/svg" width="52" height="12" fill="none"><path fill="#fff" d="M4.394 11.777c1.556 0 2.74-.38 3.552-1.14.812-.76 1.217-1.888 1.217-3.386V5.147c0-1.498-.405-2.626-1.217-3.386C7.135 1 5.95.62 4.394.62H.166A.164.164 0 0 0 0 .783v10.832c0 .09.074.162.166.162h4.228Zm-2.19-1.912V2.534h2.223c.883 0 1.529.22 1.937.661.409.441.613 1.07.613 1.889v2.23c0 .808-.204 1.435-.613 1.881-.408.446-1.054.67-1.937.67H2.204ZM14.722 12c.75 0 1.369-.114 1.854-.343.486-.228.875-.504 1.168-.828.169-.187.36-.437.57-.75a.16.16 0 0 0-.062-.233l-1.406-.71a.169.169 0 0 0-.217.058c-.204.314-.387.542-.55.686-.275.245-.706.367-1.291.367-.574 0-1.06-.17-1.458-.51-.397-.34-.607-.78-.63-1.323h5.72c.144 0 .26-.113.26-.252v-.433c0-.807-.166-1.517-.497-2.127a3.618 3.618 0 0 0-1.391-1.435c-.596-.345-1.298-.518-2.104-.518-.817 0-1.534.168-2.153.502a3.563 3.563 0 0 0-1.44 1.419c-.343.61-.514 1.33-.514 2.16v.19c0 .829.174 1.549.522 2.16.348.61.833 1.083 1.457 1.418.624.335 1.345.502 2.162.502Zm-2.005-5.084c.078-.457.282-.823.613-1.1.332-.276.779-.414 1.342-.414.54 0 .98.138 1.316.415.337.276.528.642.572 1.1h-3.842Zm9.698 4.7V7.138h4.306v4.476c0 .09.075.162.167.162h1.853a.164.164 0 0 0 .167-.162V.783a.164.164 0 0 0-.167-.162h-1.853a.164.164 0 0 0-.167.162v4.444h-4.306V.783a.164.164 0 0 0-.166-.162h-1.854a.164.164 0 0 0-.166.162v10.832c0 .09.075.162.166.162h1.854a.164.164 0 0 0 .166-.162ZM32.482.085l.56.313c.206.115.334.33.334.561v.62a.644.644 0 0 1-.334.562l-.56.313a.681.681 0 0 1-.663 0l-.56-.313a.644.644 0 0 1-.334-.561V.96c0-.233.128-.447.334-.562l.56-.313a.681.681 0 0 1 .663 0Zm.692 11.53V4.033a.164.164 0 0 0-.166-.162h-1.755a.164.164 0 0 0-.166.162v7.581c0 .09.075.162.166.162h1.755a.164.164 0 0 0 .166-.162Zm7.318.049 2.51-7.581a.161.161 0 0 0-.108-.204.17.17 0 0 0-.05-.008h-1.867a.166.166 0 0 0-.16.118l-1.87 6.32h-.298l-1.87-6.32a.166.166 0 0 0-.16-.118h-1.865a.164.164 0 0 0-.167.162c0 .017.003.034.008.05l2.51 7.58a.166.166 0 0 0 .158.113h3.07a.166.166 0 0 0 .159-.112Zm7.442.335c.75 0 1.37-.114 1.855-.343.486-.228.875-.504 1.168-.828.168-.187.359-.437.57-.75a.16.16 0 0 0-.062-.233l-1.407-.71a.169.169 0 0 0-.217.058c-.203.314-.386.542-.549.686-.276.245-.707.367-1.292.367-.574 0-1.06-.17-1.457-.51-.398-.34-.608-.78-.63-1.323h5.72c.143 0 .26-.113.26-.252v-.433c0-.807-.166-1.517-.498-2.127a3.618 3.618 0 0 0-1.39-1.435c-.597-.345-1.298-.518-2.104-.518-.817 0-1.535.168-2.153.502a3.562 3.562 0 0 0-1.441 1.419c-.342.61-.514 1.33-.514 2.16v.19c0 .829.174 1.549.522 2.16.348.61.834 1.083 1.458 1.418.623.335 1.344.502 2.161.502ZM45.93 6.916c.077-.457.282-.823.613-1.1.331-.276.778-.414 1.341-.414.541 0 .98.138 1.317.415.337.276.527.642.571 1.1H45.93Z"/></svg>